#define ba_width 48
#define ba_height 48
#define ba_x_hot -1
#define ba_y_hot -1
static char ba_bits[] = {
   0xff, 0xff, 0xff, 0xff, 0xff, 0xff, 0x0f, 0x00, 0x00, 0x00, 0x00, 0xf0,
   0x03, 0x00, 0x00, 0x00, 0x00, 0xc0, 0x03, 0x00, 0x00, 0x00, 0x00, 0xc0,
   0x01, 0x00, 0x00, 0x00, 0x00, 0x80, 0x01, 0x00, 0x00, 0x00, 0x00, 0x80,
   0x01, 0x00, 0x00, 0x00, 0x00, 0x80, 0x01, 0x00, 0x00, 0x00, 0x00, 0x80,
   0x01, 0x00, 0x00, 0x00, 0x00, 0x80, 0x01, 0x00, 0x00, 0x18, 0x00, 0x81,
   0x01, 0x00, 0x00, 0x0c, 0xe0, 0x80, 0x81, 0x01, 0x00, 0x07, 0x1e, 0x80,
   0xf1, 0x00, 0xe0, 0xcf, 0x03, 0x80, 0x4d, 0x00, 0x3c, 0xfe, 0x00, 0x80,
   0x21, 0x00, 0x0f, 0x1f, 0x00, 0x9e, 0x11, 0xe0, 0x81, 0x03, 0xe0, 0x81,
   0x11, 0x38, 0x00, 0x20, 0x1c, 0x80, 0xc9, 0x00, 0x00, 0x30, 0x00, 0x80,
   0x3d, 0x00, 0x00, 0x1c, 0x00, 0x80, 0x05, 0x00, 0x00, 0x1e, 0x00, 0x80,
   0x01, 0x00, 0x80, 0x0f, 0xe0, 0x8f, 0x01, 0x00, 0xe0, 0x07, 0xff, 0x81,
   0x01, 0x00, 0xf8, 0xe7, 0x3f, 0x80, 0x01, 0x00, 0xff, 0xfb, 0x03, 0x80,
   0x01, 0xe0, 0xff, 0x7f, 0x00, 0x80, 0x01, 0xfc, 0xff, 0x1f, 0x00, 0x80,
   0x01, 0xff, 0xfc, 0x03, 0x00, 0x80, 0xe1, 0x1f, 0x7e, 0x00, 0x00, 0x80,
   0xfd, 0x00, 0x1f, 0x00, 0x00, 0xa0, 0x01, 0x80, 0x07, 0x00, 0x00, 0x9f,
   0x01, 0xc0, 0x01, 0x00, 0xf0, 0x87, 0x01, 0x64, 0x00, 0x00, 0x3f, 0x80,
   0x01, 0x27, 0xc0, 0x01, 0x00, 0x80, 0x81, 0x07, 0x38, 0x00, 0x00, 0x80,
   0x61, 0x02, 0x06, 0x00, 0x00, 0x80, 0x31, 0x82, 0x01, 0x00, 0x00, 0x80,
   0x09, 0x42, 0x00, 0x00, 0x00, 0x80, 0x01, 0x33, 0x00, 0x00, 0x00, 0x80,
   0x01, 0x09, 0x00, 0x00, 0x00, 0x80, 0x01, 0x05, 0x00, 0x00, 0x00, 0x80,
   0x01, 0x03, 0x00, 0x00, 0x00, 0x80, 0x81, 0x01, 0x00, 0x00, 0x00, 0x80,
   0x81, 0x00, 0x00, 0x00, 0x00, 0x80, 0x01, 0x00, 0x00, 0x00, 0x00, 0x80,
   0x03, 0x00, 0x00, 0x00, 0x00, 0xc0, 0x03, 0x00, 0x00, 0x00, 0x00, 0xc0,
   0x0f, 0x00, 0x00, 0x00, 0x00, 0xf0, 0xff, 0xff, 0xff, 0xff, 0xff, 0xff};
