#define bu_width 48
#define bu_height 48
#define bu_x_hot -1
#define bu_y_hot -1
static char bu_bits[] = {
   0xff, 0xff, 0xff, 0xff, 0xff, 0xff, 0x0f, 0x00, 0x00, 0x00, 0x00, 0xf0,
   0x03, 0x00, 0x08, 0x00, 0x00, 0xc0, 0x03, 0x0a, 0x00, 0x00, 0x00, 0xc0,
   0x09, 0x00, 0x41, 0x80, 0x20, 0x80, 0xa5, 0x00, 0x00, 0x00, 0x00, 0x80,
   0x21, 0x10, 0x00, 0x04, 0x00, 0x88, 0x55, 0x08, 0x44, 0x00, 0x02, 0x82,
   0x01, 0x01, 0x00, 0x00, 0x00, 0xa0, 0x51, 0x08, 0x41, 0x04, 0x40, 0x80,
   0x85, 0x08, 0x04, 0x20, 0x02, 0x84, 0x61, 0x26, 0x20, 0x00, 0x00, 0x80,
   0x89, 0x10, 0x01, 0x01, 0x10, 0x90, 0x01, 0x44, 0x08, 0x00, 0x80, 0x80,
   0x21, 0x20, 0x41, 0x04, 0x04, 0x88, 0x11, 0x49, 0x08, 0x40, 0x20, 0x80,
   0x01, 0x80, 0x82, 0x00, 0x02, 0x82, 0x45, 0x50, 0x28, 0x15, 0x40, 0x80,
   0x11, 0x04, 0x12, 0x80, 0x28, 0xa8, 0x01, 0xa1, 0xa4, 0x24, 0x82, 0x82,
   0x23, 0x00, 0x01, 0x82, 0x28, 0x88, 0x91, 0x52, 0xaa, 0x10, 0x40, 0xa2,
   0x21, 0x08, 0x05, 0x25, 0x09, 0x90, 0x09, 0x42, 0x90, 0x90, 0x42, 0xad,
   0x85, 0x10, 0x02, 0x2a, 0x08, 0x80, 0x01, 0xa4, 0x88, 0x40, 0x42, 0xa0,
   0x49, 0x00, 0x22, 0x24, 0x10, 0x84, 0x01, 0x88, 0x00, 0x51, 0x09, 0x81,
   0x41, 0x02, 0x48, 0x84, 0x44, 0x90, 0x11, 0x20, 0x02, 0x00, 0x12, 0x84,
   0x01, 0x00, 0x80, 0x90, 0x24, 0xa1, 0x05, 0x08, 0x01, 0x04, 0x10, 0x88,
   0x81, 0x00, 0x48, 0x00, 0x42, 0x82, 0x01, 0x00, 0x00, 0x81, 0x28, 0xc5,
   0x01, 0x00, 0x00, 0x10, 0x40, 0x88, 0x01, 0x08, 0x00, 0x00, 0x22, 0x91,
   0x01, 0x00, 0x01, 0x00, 0x08, 0xca, 0x11, 0x00, 0x20, 0x82, 0x40, 0x80,
   0x01, 0x00, 0x00, 0x00, 0x08, 0xa9, 0x01, 0x00, 0x00, 0x10, 0x00, 0xd4,
   0x01, 0x10, 0x00, 0x80, 0x14, 0x80, 0x01, 0x00, 0x20, 0x00, 0x00, 0x91,
   0x01, 0x00, 0x00, 0x08, 0x00, 0x80, 0x01, 0x00, 0x00, 0x40, 0x08, 0x80,
   0x03, 0x00, 0x00, 0x00, 0x80, 0xd0, 0x03, 0x02, 0x08, 0x00, 0x01, 0xc0,
   0x0f, 0x00, 0x00, 0x00, 0x00, 0xf0, 0xff, 0xff, 0xff, 0xff, 0xff, 0xff};
