#define sc_width 16
#define sc_height 16
static char sc_bits[] = {
0x00,0x00,0x40,0x02,0x40,0x02,0x20,0x04,0x20,0x04,0x30,0x0c,
0x30,0x0c,0x30,0x0c,0x30,0x0c,0x30,0x0c,0x30,0x0c,0x70,0x0e,
0x70,0x0e,0x70,0x0e,0x78,0x1e,0x3c,0x3c};
