#define sd_width 16
#define sd_height 16
static char sd_bits[] = {
0x00,0x00,0x00,0x04,0x00,0x06,0x00,0x06,0x00,0x03,0x00,0x03,
0x80,0x03,0xe0,0x03,0xf0,0x07,0xf8,0x07,0xf8,0x07,0xf8,0x07,
0xf8,0x03,0xf8,0x03,0xf0,0x01,0xf8,0x00};
