#define sd2_width 16
#define sd2_height 16
#define sd2_x_hot -1
#define sd2_y_hot -1
static char sd2_bits[] = {
0x00,0x00,0x80,0x04,0xc0,0x0c,0xc0,0x0c,0x60,0x0c,0x60,0x0c,
0x70,0x1c,0x7c,0x7c,0xfe,0xfe,0xff,0xfe,0xff,0xfe,0xff,0xfe,
0x7f,0xfc,0x7f,0xfc,0x3e,0xf8,0x1f,0xf8};
