#define sf_width 16
#define sf_height 16
static char sf_bits[] = {
0x00,0x00,0x00,0x00,0x00,0x00,0x80,0x06,0x40,0x33,0xa8,0x19,
0xb8,0x0d,0xb4,0x0d,0xfc,0x07,0xfc,0x27,0xfc,0x37,0xfc,0x1f,
0xfc,0x0f,0xf8,0x07,0xfc,0x01,0xfe,0x00};
