#define sf2_width 16
#define sf2_height 16
#define sf2_x_hot -1
#define sf2_y_hot -1
static char sf2_bits[] = {
0x00,0x00,0x00,0x00,0x00,0x00,0x1a,0x58,0xcd,0xb3,0x67,0xe6,
0x37,0xec,0x37,0xec,0x1f,0xf8,0x9f,0xf9,0xdf,0xfb,0x7f,0xfe,
0x3f,0xfc,0x1f,0xf8,0x07,0xe0,0x03,0xc0};
