#define sp_width 16
#define sp_height 16
static char sp_bits[] = {
0x80,0x01,0x80,0x05,0xa0,0x07,0xe0,0x07,0xe0,0x07,0xe8,0x07,
0xf8,0x07,0xf8,0x27,0xf8,0x37,0xf8,0x3f,0xf8,0x3f,0xf8,0x1f,
0xf0,0x0f,0xf0,0x0f,0xf0,0x07,0xe0,0x03};
