#define sp2_width 16
#define sp2_height 16
#define sp2_x_hot -1
#define sp2_y_hot -1
static char sp2_bits[] = {
0x00,0x00,0x18,0x18,0x58,0x1a,0x7c,0x3e,0x7e,0x7e,0x7e,0x7e,
0x7f,0xfe,0x7f,0xfe,0x7f,0xfe,0xff,0xff,0xff,0xff,0xff,0xff,
0xff,0xff,0xff,0xff,0x7e,0x7e,0x3e,0x7c};
