#define ss_width 16
#define ss_height 16
static char ss_bits[] = {
0x20,0x08,0x40,0x04,0x00,0x00,0x80,0x01,0xe0,0x03,0xf0,0x33,
0x78,0x03,0x3c,0x01,0x9e,0x01,0xfe,0x03,0xfe,0x07,0xfc,0x07,
0xf8,0x07,0xf0,0x07,0xe0,0x03,0xc0,0x03};
