#define ss2_width 16
#define ss2_height 16
#define ss2_x_hot -1
#define ss2_y_hot -1
static char ss2_bits[] = {
0x22,0x89,0x24,0x49,0x00,0x00,0x30,0x0c,0x7c,0x3e,0x7e,0x7e,
0x6f,0xf6,0x27,0xe4,0x33,0xcc,0x7f,0xfe,0xff,0xff,0xff,0xff,
0xff,0xff,0xfe,0x7f,0x7c,0x3e,0x78,0x1e};
