#define sw_width 16
#define sw_height 16
static char sw_bits[] = {
0x00,0x00,0x00,0x00,0x00,0x00,0x00,0x06,0x00,0x03,0xc0,0x03,
0xe0,0x01,0xf0,0x00,0x78,0x00,0x78,0x00,0xf0,0x01,0xe0,0x03,
0xc0,0x07,0x80,0x0f,0x80,0x0f,0xc0,0x0f};
