#define sw2_width 16
#define sw2_height 16
#define sw2_x_hot -1
#define sw2_y_hot -1
static char sw2_bits[] = {
0x00,0x00,0x00,0x00,0x00,0x00,0x60,0x06,0x30,0x0c,0x3c,0x3c,
0x1e,0x78,0x0f,0xf0,0x07,0xe0,0x07,0xe0,0x1f,0xf8,0x3e,0x7c,
0x7c,0x3e,0x78,0x1e,0xf8,0x1f,0xfc,0x3f};
